<?xml version="1.0" encoding="UTF-8" standalone="no"?>
<svg
   fill="none"
   height="48"
   viewBox="0 0 49 48"
   width="49"
   version="1.1"
   id="svg1275"
   sodipodi:docname="favicon.svg"
   inkscape:version="1.1.2 (b8e25be833, 2022-02-05)"
   xmlns:inkscape="http://www.inkscape.org/namespaces/inkscape"
   xmlns:sodipodi="http://sodipodi.sourceforge.net/DTD/sodipodi-0.dtd"
   xmlns="http://www.w3.org/2000/svg"
   xmlns:svg="http://www.w3.org/2000/svg">
  <defs
     id="defs1279" />
  <sodipodi:namedview
     id="namedview1277"
     pagecolor="#ffffff"
     bordercolor="#666666"
     borderopacity="1.0"
     inkscape:pageshadow="2"
     inkscape:pageopacity="0.0"
     inkscape:pagecheckerboard="0"
     showgrid="false"
     inkscape:zoom="1"
     inkscape:cx="24.5"
     inkscape:cy="24"
     inkscape:window-width="1366"
     inkscape:window-height="705"
     inkscape:window-x="-8"
     inkscape:window-y="-8"
     inkscape:window-maximized="1"
     inkscape:current-layer="svg1275" />
  <g
     id="g5329"
     transform="matrix(0.46,0,0,0.46,-29.779989,-21.079996)"
     inkscape:export-filename="C:\Users\Admin\Desktop\OG\studioweb\images\favicon.png"
     inkscape:export-xdpi="96"
     inkscape:export-ydpi="96">
    <circle
       style="fill:#ff6c00;fill-opacity:1;stroke:none;stroke-width:4.0252"
       id="path1662"
       cx="117.99998"
       cy="97.999992"
       r="50" />
    <g
       id="g1638"
       transform="matrix(1.3333333,0,0,-1.3333333,89.871951,123.11865)"
       style="fill:#ffffff;fill-opacity:1">
      <path
         d="m 0,0 9.137,8.961 c 2.364,-3.493 6.773,-5.609 11.536,-5.609 3.211,0 6.35,1.164 6.35,3.492 0,2.928 -5.821,5.504 -11.395,7.973 -7.196,3.105 -13.37,7.831 -13.37,16.405 0,9.842 9.348,16.863 20.143,16.863 8.679,0 15.453,-4.093 17.675,-9.702 l -8.714,-8.397 c -1.693,2.999 -6.067,4.305 -8.784,4.305 -3.104,0 -5.327,-1.588 -5.327,-3.528 0,-2.611 4.021,-3.457 10.16,-6.033 8.891,-3.739 14.781,-9.172 14.781,-17.569 0,-10.83 -10.088,-17.568 -21.484,-17.568 C 11.359,-10.407 2.857,-6.279 0,0"
         style="fill:#ffffff;fill-opacity:1;fill-rule:nonzero;stroke:none"
         id="path1636" />
    </g>
  </g>
</svg>
