<?xml version="1.0" encoding="UTF-8" standalone="no"?>
<!-- Created with Inkscape (http://www.inkscape.org/) -->

<svg
   width="157"
   height="55"
   viewBox="0 0 41.539585 14.552084"
   version="1.1"
   id="svg5"
   inkscape:version="1.1.2 (b8e25be833, 2022-02-05)"
   sodipodi:docname="logo-white.svg"
   xmlns:inkscape="http://www.inkscape.org/namespaces/inkscape"
   xmlns:sodipodi="http://sodipodi.sourceforge.net/DTD/sodipodi-0.dtd"
   xmlns="http://www.w3.org/2000/svg"
   xmlns:svg="http://www.w3.org/2000/svg">
  <sodipodi:namedview
     id="namedview7"
     pagecolor="#ffffff"
     bordercolor="#666666"
     borderopacity="1.0"
     inkscape:pageshadow="2"
     inkscape:pageopacity="0.0"
     inkscape:pagecheckerboard="0"
     inkscape:document-units="px"
     showgrid="false"
     width="157mm"
     units="px"
     inkscape:zoom="4"
     inkscape:cx="79.625"
     inkscape:cy="53.25"
     inkscape:window-width="1366"
     inkscape:window-height="705"
     inkscape:window-x="-8"
     inkscape:window-y="-8"
     inkscape:window-maximized="1"
     inkscape:current-layer="g1306" />
  <defs
     id="defs2">
    <clipPath
       clipPathUnits="userSpaceOnUse"
       id="clipPath838">
      <path
         d="M 0,792 H 612 V 0 H 0 Z"
         id="path836" />
    </clipPath>
  </defs>
  <g
     inkscape:label="Layer 1"
     inkscape:groupmode="layer"
     id="layer1">
    <g
       id="g1306"
       transform="matrix(0.38483243,0,0,0.38483243,-3.6994674,-4.1399701)">
      <path
         d="m 12.480529,32.404901 3.22333,-3.161242 c 0.833967,1.232253 2.389364,1.978731 4.069645,1.978731 1.132769,0 2.240139,-0.410633 2.240139,-1.2319 0,-1.032933 -2.05352,-1.941689 -4.019903,-2.812697 -2.538589,-1.095375 -4.716639,-2.762603 -4.716639,-5.78732 0,-3.472038 3.297767,-5.948891 7.106003,-5.948891 3.061758,0 5.451475,1.443919 6.235347,3.42265 l -3.074106,2.962275 c -0.597252,-1.057981 -2.140302,-1.518709 -3.0988,-1.518709 -1.095022,0 -1.879247,0.560212 -1.879247,1.2446 0,0.921103 1.41852,1.219553 3.584222,2.128309 3.136548,1.319036 5.214409,3.235677 5.214409,6.197952 0,3.820584 -3.558822,6.1976 -7.579078,6.1976 -3.298119,0 -6.297436,-1.456266 -7.305322,-3.671358"
         style="fill:#ffffff;fill-opacity:1;fill-rule:nonzero;stroke:none;stroke-width:0.352778"
         id="path842" />
      <g
         id="g844"
         transform="matrix(0.35277777,0,0,-0.35277777,43.541876,20.718785)"
         style="fill:#ffffff;fill-opacity:1">
        <path
           d="M 0,0 H -13.617 V -42.757 H -28.751 V 0 H -42.404 V 14.111 H 0 Z"
           style="fill:#ffffff;fill-opacity:1;fill-rule:nonzero;stroke:none"
           id="path846" />
      </g>
      <g
         id="g848"
         transform="matrix(0.35277777,0,0,-0.35277777,77.787143,25.783756)"
         style="fill:#ffffff;fill-opacity:1">
        <path
           d="m 0,0 c 0,8.925 -6.209,14.357 -16.404,14.357 h -3.457 v -28.54 h 3.597 C -6.174,-14.183 0,-8.82 0,0 m 15.135,-0.035 c 0,-17.64 -11.819,-28.364 -31.151,-28.364 h -18.556 v 56.833 l 18.556,0.035 C 3.316,28.54 15.135,17.744 15.135,-0.035"
           style="fill:#ffffff;fill-opacity:1;fill-rule:nonzero;stroke:none"
           id="path850" />
      </g>
      <path
         d="m 85.737589,15.740561 h 5.326239 v 20.061765 h -5.326239 z"
         style="fill:#ffffff;fill-opacity:1;fill-rule:nonzero;stroke:none;stroke-width:0.352778"
         id="path852" />
      <g
         id="g854"
         transform="matrix(0.35277777,0,0,-0.35277777,45.63099,28.509529)"
         style="fill:#ffffff;fill-opacity:1">
        <path
           d="M 0,0 V 36.195 H 15.205 V 0.035 c 0,-4.726 4.057,-7.867 8.36,-7.867 4.269,0 8.432,3.211 8.432,7.867 v 36.16 H 47.202 V 0 c 0,-13.053 -10.583,-22.261 -23.601,-22.261 C 10.583,-22.261 0,-13.053 0,0"
           style="fill:#ffffff;fill-opacity:1;fill-rule:nonzero;stroke:none"
           id="path856" />
      </g>
      <g
         id="g858"
         transform="matrix(0.35277777,0,0,-0.35277777,110.31576,25.758956)"
         style="fill:#ffffff;fill-opacity:1">
        <path
           d="m 0,0 c 0,8.784 -6.914,15.558 -15.945,15.558 -9.032,0 -15.946,-6.774 -15.946,-15.558 0,-8.749 6.914,-15.487 15.946,-15.487 C -6.914,-15.487 0,-8.749 0,0 m -47.166,-0.105 c 0,17.074 13.547,30.021 31.221,30.021 17.674,0 31.22,-12.947 31.22,-30.021 0,-16.934 -13.546,-29.811 -31.255,-29.811 -17.674,0 -31.186,12.877 -31.186,29.811"
           style="fill:#ffffff;fill-opacity:1;fill-rule:nonzero;stroke:none"
           id="path860" />
      </g>
      <path
         d="m 64.231057,42.957756 0.520347,-1.218494 0.516114,1.218494 z m -0.480131,1.036461 h 1.996723 c 0.131233,0.29457 0.262114,0.59302 0.392994,0.887589 h 1.265767 l -2.666295,-5.957711 -2.658533,5.957711 h 1.261886 c 0.134761,-0.29845 0.26917,-0.593019 0.400403,-0.891117 z M 69.29871,39.04792 h -1.447448 v 5.84835 h 1.447448 c 0.804333,0 1.564216,-0.287161 2.138891,-0.858308 1.047397,-1.04387 1.047397,-3.084337 0,-4.131734 -0.574675,-0.574675 -1.334558,-0.862189 -2.138891,-0.862189 z m 0.0039,4.6736 h -0.276225 v -3.509786 h 0.268817 c 0.48013,0 0.931333,0.134408 1.273175,0.48013 0.345369,0.34537 0.48013,0.79622 0.48013,1.27635 0,0.484011 -0.134761,0.934861 -0.47625,1.276703 -0.342194,0.342195 -0.785988,0.476603 -1.266119,0.476603 z m 4.801306,-4.6736 h -1.447448 v 5.84835 h 1.447448 c 0.80398,0 1.564216,-0.287161 2.138891,-0.858308 1.047397,-1.04387 1.047397,-3.084337 0,-4.131734 -0.574675,-0.574675 -1.334911,-0.862189 -2.138891,-0.862189 z m 0.0039,4.6736 h -0.276578 v -3.509786 h 0.269523 c 0.479777,0 0.930627,0.134408 1.272822,0.48013 0.345369,0.34537 0.479778,0.79622 0.479778,1.27635 0,0.484011 -0.134409,0.934861 -0.47625,1.276703 -0.341842,0.342195 -0.785636,0.476603 -1.265767,0.476603 z"
         style="fill:#ffffff;fill-opacity:1;fill-rule:nonzero;stroke:none;stroke-width:0.352778"
         id="path864" />
      <path
         d="m 77.465021,38.924056 v 5.972175 h 1.17475 v -3.244497 l 3.517547,3.353505 v -5.971822 h -1.17475 v 3.240617 z m 5.27438,0.109361 v 5.862814 h 1.17475 2.342445 v -1.17475 h -2.342445 v -1.171222 h 1.757186 v -1.171222 h -1.757186 v -1.17475 h 2.342445 v -1.17087 z m 6.875286,-0.02928 c -0.814563,0 -1.513063,0.291041 -2.091266,0.872772 -0.578203,0.582083 -0.869245,1.280583 -0.869245,2.095147 0,0.814564 0.291042,1.513064 0.869245,2.091267 0.578203,0.578555 1.276703,0.869244 2.091266,0.869244 0.407459,0 0.789517,-0.0762 1.14935,-0.232481 0.360186,-0.156633 0.676628,-0.367594 0.949678,-0.636763 l -0.836789,-0.836437 c -0.34925,0.34925 -0.767291,0.523875 -1.258711,0.523875 -0.490714,0 -0.909108,-0.174625 -1.254478,-0.520347 -0.345722,-0.345369 -0.520347,-0.763764 -0.520347,-1.25483 0,-0.487186 0.174625,-0.905581 0.520347,-1.254831 0.34537,-0.348897 0.763764,-0.523875 1.254478,-0.523875 0.484011,0 0.902406,0.174978 1.255183,0.523875 l 0.836437,-0.836436 C 91.436785,39.618675 91.120696,39.407714 90.76051,39.251434 90.400323,39.095153 90.018618,39.0186 89.61116,39.0186 Z m 3.92677,0.02928 h -1.465792 v 1.17087 h 1.465792 v 4.691944 h 1.17475 v -4.691944 h 1.466144 v -1.17087 h -1.466144 z m 4.089047,3.9243 0.519994,-1.218494 0.51682,1.218494 z m -0.480131,1.036461 h 1.996723 c 0.13088,0.294922 0.261761,0.59302 0.392641,0.887589 h 1.265763 l -2.665938,-5.957711 -2.658886,5.957711 h 1.262239 c 0.134408,-0.29845 0.269169,-0.592667 0.40005,-0.891117 z m 4.104217,0.902053 h 1.17475 v -2.291292 l 1.4986,2.291292 h 1.43263 l -1.32397,-2.040467 c 0.38558,-0.145344 0.59301,-0.247297 0.84031,-0.596194 0.2473,-0.34925 0.37112,-0.669572 0.37112,-1.105958 v -0.181681 c 0,-0.563739 -0.16368,-0.942269 -0.56762,-1.345847 -0.40357,-0.403578 -0.9599,-0.600075 -1.524,-0.600075 h -1.9057 z m 1.17087,-3.047647 v -1.651706 h 0.65828 c 0.24412,0 0.54928,0.06209 0.72037,0.236714 0.17075,0.174272 0.23249,0.334433 0.23249,0.574675 0,0.24377 -0.0617,0.439914 -0.23249,0.611011 -0.17109,0.171097 -0.29492,0.232833 -0.53833,0.232833 z"
         style="fill:#ffffff;fill-opacity:1;fill-rule:nonzero;stroke:none;stroke-width:0.352778"
         id="path868" />
      <g
         id="g870"
         transform="matrix(0.35277777,0,0,-0.35277777,107.56656,45.482126)"
         style="fill:#ffffff">
        <path
           d="m 0,0 c 0,0 -7.416,2.634 -3.121,9.781 0,0 4.231,-2.443 4.23,-7.783 0,0 3.288,-0.766 5.089,1.247 0,0 -0.568,-4.815 -5.347,-3.419 0,0 3.514,-0.254 4.64,2.309 0,0 -0.793,-1.406 -5.218,-0.635 0,0 0.41,4.548 -3.017,6.824 0,0 -2.788,-3.862 2.744,-8.324"
           style="fill:#ffffff;fill-opacity:1;fill-rule:nonzero;stroke:none"
           id="path872" />
      </g>
      <g
         id="g874"
         transform="matrix(0.35277777,0,0,-0.35277777,105.52327,44.953316)"
         style="fill:#ffffff">
        <path
           d="M 0,0 C 0,0 5.524,0.077 8.273,-5.47 8.273,-5.47 5.251,-1.152 0,0"
           style="fill:#ffffff;fill-opacity:1;fill-rule:nonzero;stroke:none"
           id="path876" />
      </g>
      <g
         id="g878"
         transform="matrix(0.35277777,0,0,-0.35277777,52.883784,41.887356)"
         style="fill:#ffffff">
        <path
           d="m 0,0 c -0.73,-0.714 -1.095,-1.626 -1.095,-2.737 0,-1.126 0.361,-2.047 1.083,-2.761 0.722,-0.713 1.615,-1.07 2.678,-1.07 1.046,0 1.927,0.353 2.641,1.058 0.714,0.706 1.071,1.631 1.071,2.773 0,1.174 -0.353,2.102 -1.059,2.784 C 4.613,0.729 3.729,1.071 2.666,1.071 1.618,1.071 0.73,0.714 0,0 M -1.237,8.02 V 1.285 c 0.364,0.651 0.947,1.162 1.749,1.535 0.801,0.373 1.59,0.559 2.367,0.559 1.746,0 3.174,-0.535 4.284,-1.606 1.111,-1.071 1.666,-2.574 1.666,-4.51 0,-1.888 -0.563,-3.38 -1.689,-4.474 -1.127,-1.095 -2.563,-1.642 -4.308,-1.642 -1.856,0 -3.213,0.698 -4.069,2.094 L -1.38,-8.615 H -3.688 V 8.02 Z"
           style="fill:#ffffff;fill-opacity:1;fill-rule:nonzero;stroke:none"
           id="path880" />
      </g>
      <g
         id="g882"
         transform="matrix(0.35277777,0,0,-0.35277777,60.716544,40.787496)"
         style="fill:#ffffff">
        <path
           d="m 0,0 -7.402,-17.183 h -2.713 l 2.428,5.617 L -12.375,0 h 2.855 l 2.023,-5.545 1.166,-3.332 1.262,3.284 L -2.737,0 Z"
           style="fill:#ffffff;fill-opacity:1;fill-rule:nonzero;stroke:none"
           id="path884" />
      </g>
    </g>
  </g>
</svg>
